<svg xmlns="http://www.w3.org/2000/svg" width="70.023" height="76.389" viewBox="0 0 70.023 76.389"><g id="consulta_2_" data-name="consulta (2)" transform="translate(-4.5 -2)"><path id="Trazado_217" data-name="Trazado 217" d="M25.128,50.791c9-6.355,4.536-20.756-6.623-20.791-11.148.035-15.621,14.415-6.641,20.778A13.9,13.9,0,0,0,4.5,63.1v3.819A1.273,1.273,0,0,0,5.282,68.1,34.119,34.119,0,0,0,18.5,70.74,34.61,34.61,0,0,0,31.727,68.1a1.273,1.273,0,0,0,.782-1.175V63.1a13.927,13.927,0,0,0-7.381-12.31ZM9.593,41.458A8.922,8.922,0,0,1,18.5,32.546c11.807.448,11.8,17.377,0,17.824a8.922,8.922,0,0,1-8.912-8.912Zm20.37,24.6a31.91,31.91,0,0,1-22.917,0V63.1A11.534,11.534,0,0,1,14.772,52.28a11.37,11.37,0,0,0,7.454,0A11.45,11.45,0,0,1,29.963,63.1Z" transform="translate(0 7.648)" fill="#1a1a1a"></path><path id="Trazado_218" data-name="Trazado 218" d="M58.128,22.791C67.129,16.436,62.664,2.036,51.5,2c-11.148.035-15.621,14.415-6.641,20.778A13.9,13.9,0,0,0,37.5,35.1v3.819a1.273,1.273,0,0,0,.782,1.175A34.119,34.119,0,0,0,51.5,42.74,34.61,34.61,0,0,0,64.727,40.1a1.273,1.273,0,0,0,.782-1.175V35.1A13.927,13.927,0,0,0,58.128,22.791ZM42.593,13.458A8.922,8.922,0,0,1,51.5,4.546c11.807.448,11.8,17.377,0,17.824a8.922,8.922,0,0,1-8.912-8.912ZM52.778,24.841V26.19a1.273,1.273,0,0,1-2.546,0V24.841a11,11,0,0,0,2.546,0ZM62.963,38.061a31.91,31.91,0,0,1-22.917,0V35.1A11.535,11.535,0,0,1,47.685,24.31V26.19a3.819,3.819,0,0,0,7.639,0V24.321A11.442,11.442,0,0,1,62.963,35.1Z" transform="translate(9.014)" fill="#1a1a1a"></path><path id="Trazado_219" data-name="Trazado 219" d="M51.5,26.273a1.273,1.273,0,0,0,1.273,1.273h3.819a1.273,1.273,0,0,0,0-2.546H52.773A1.273,1.273,0,0,0,51.5,26.273Z" transform="translate(12.838 6.282)" fill="#1a1a1a"></path><path id="Trazado_220" data-name="Trazado 220" d="M38.109,32.4c1.358-1.677-.257-3.175-.628-4.935H39.6a5.1,5.1,0,0,0,5.093-5.093V7.093A5.1,5.1,0,0,0,39.6,2H11.593A5.1,5.1,0,0,0,6.5,7.093V22.37a5.1,5.1,0,0,0,5.093,5.093H28.17A11.515,11.515,0,0,0,35.445,33.3a2.52,2.52,0,0,0,2.664-.9Zm-7.988-6.734a1.273,1.273,0,0,0-1.159-.747H11.593A2.549,2.549,0,0,1,9.046,22.37V7.093a2.549,2.549,0,0,1,2.546-2.546H39.6a2.549,2.549,0,0,1,2.546,2.546V22.37A2.549,2.549,0,0,1,39.6,24.917H35.943c-2.632.178-.382,4.886.182,5.926a9.117,9.117,0,0,1-6-5.178Z" transform="translate(0.546)" fill="#1a1a1a"></path><path id="Trazado_221" data-name="Trazado 221" d="M35.417,10.273A1.273,1.273,0,0,0,34.143,9H13.773a1.273,1.273,0,1,0,0,2.546h20.37a1.273,1.273,0,0,0,1.273-1.273Z" transform="translate(2.185 1.912)" fill="#1a1a1a"></path><path id="Trazado_222" data-name="Trazado 222" d="M33.231,14.273A1.273,1.273,0,0,0,31.958,13H21.773a1.273,1.273,0,0,0,0,2.546H31.958A1.273,1.273,0,0,0,33.231,14.273Z" transform="translate(4.37 3.005)" fill="#1a1a1a"></path><path id="Trazado_223" data-name="Trazado 223" d="M62.6,43.271H46.024a11.515,11.515,0,0,0-7.275-5.834,2.515,2.515,0,0,0-2.664.9c-1.357,1.676.256,3.176.628,4.935H34.593A5.1,5.1,0,0,0,29.5,48.363V63.641a5.1,5.1,0,0,0,5.093,5.093H62.6a5.1,5.1,0,0,0,5.093-5.093V48.363A5.1,5.1,0,0,0,62.6,43.271Zm2.546,20.37A2.549,2.549,0,0,1,62.6,66.187H34.593a2.549,2.549,0,0,1-2.546-2.546V48.363a2.549,2.549,0,0,1,2.546-2.546h3.658c2.634-.18.38-4.885-.182-5.926a9.117,9.117,0,0,1,6,5.178,1.273,1.273,0,0,0,1.159.747H62.6a2.549,2.549,0,0,1,2.546,2.546Z" transform="translate(6.829 9.655)" fill="#1a1a1a"></path><path id="Trazado_224" data-name="Trazado 224" d="M57.143,53H36.773a1.273,1.273,0,1,0,0,2.546h20.37a1.273,1.273,0,1,0,0-2.546Z" transform="translate(8.467 13.93)" fill="#1a1a1a"></path><path id="Trazado_225" data-name="Trazado 225" d="M54.958,49H44.773a1.273,1.273,0,1,0,0,2.546H54.958a1.273,1.273,0,1,0,0-2.546Z" transform="translate(10.652 12.838)" fill="#1a1a1a"></path></g></svg>