<svg xmlns="http://www.w3.org/2000/svg" width="100.176" height="63.368" viewBox="0 0 100.176 63.368"><g id="enviado" transform="translate(0 -94.062)"><g id="Grupo_16" data-name="Grupo 16" transform="translate(0 94.062)"><g id="Grupo_15" data-name="Grupo 15"><path id="Trazado_211" data-name="Trazado 211" d="M93.164,120.926l-2.594-10.377a1.569,1.569,0,0,0,1.241-1.534v-1.673a6.6,6.6,0,0,0-6.588-6.588H73.407V97.3a3.245,3.245,0,0,0-3.242-3.242H9.934A3.245,3.245,0,0,0,6.692,97.3v28.443a1.569,1.569,0,1,0,3.137,0V97.3a.1.1,0,0,1,.1-.1H70.165a.1.1,0,0,1,.1.1v28.443a1.569,1.569,0,1,0,3.137,0v-1.778H91.918a5.133,5.133,0,0,1,4.874,3.555H91.915a1.569,1.569,0,0,0-1.569,1.569v3.346a4.92,4.92,0,0,0,4.915,4.915h1.778v6.9h-4.1a9.931,9.931,0,0,0-18.776,0h-.755V132.439a1.569,1.569,0,1,0-3.137,0v11.816H37.726a9.931,9.931,0,0,0-18.776,0H9.934a.1.1,0,0,1-.1-.1V140.7h6.8a1.569,1.569,0,1,0,0-3.137H1.569a1.569,1.569,0,1,0,0,3.137H6.692v3.451a3.245,3.245,0,0,0,3.242,3.242h8.473c0,.035,0,.069,0,.1a9.934,9.934,0,1,0,19.868,0c0-.035,0-.07,0-.1H73.618c0,.035,0,.069,0,.1a9.934,9.934,0,1,0,19.868,0c0-.035,0-.07,0-.1h5.127a1.569,1.569,0,0,0,1.569-1.569V129.092A8.273,8.273,0,0,0,93.164,120.926ZM73.407,103.892H85.223a3.455,3.455,0,0,1,3.451,3.451v.1H73.407Zm0,16.94V110.584H87.345l2.562,10.248ZM28.338,154.293a6.8,6.8,0,1,1,6.8-6.8A6.8,6.8,0,0,1,28.338,154.293Zm55.212,0a6.8,6.8,0,1,1,6.8-6.8A6.8,6.8,0,0,1,83.55,154.293Zm13.489-20.077H95.262a1.78,1.78,0,0,1-1.778-1.778v-1.778h3.555v3.555Z" transform="translate(0 -94.062)" fill="#1a1a1a"></path></g></g><g id="Grupo_18" data-name="Grupo 18" transform="translate(25.096 144.255)"><g id="Grupo_17" data-name="Grupo 17" transform="translate(0 0)"><path id="Trazado_212" data-name="Trazado 212" d="M131.509,350.6a3.242,3.242,0,1,0,3.242,3.242A3.245,3.245,0,0,0,131.509,350.6Z" transform="translate(-128.267 -350.597)" fill="#1a1a1a"></path></g></g><g id="Grupo_20" data-name="Grupo 20" transform="translate(80.308 144.255)"><g id="Grupo_19" data-name="Grupo 19" transform="translate(0 0)"><path id="Trazado_213" data-name="Trazado 213" d="M413.7,350.6a3.242,3.242,0,1,0,3.242,3.242A3.245,3.245,0,0,0,413.7,350.6Z" transform="translate(-410.455 -350.597)" fill="#1a1a1a"></path></g></g><g id="Grupo_22" data-name="Grupo 22" transform="translate(40.154 137.563)"><g id="Grupo_21" data-name="Grupo 21"><path id="Trazado_214" data-name="Trazado 214" d="M230.219,316.393H206.8a1.569,1.569,0,0,0,0,3.137h23.423a1.569,1.569,0,0,0,0-3.137Z" transform="translate(-205.227 -316.393)" fill="#1a1a1a"></path></g></g><g id="Grupo_24" data-name="Grupo 24" transform="translate(3.346 130.87)"><g id="Grupo_23" data-name="Grupo 23" transform="translate(0 0)"><path id="Trazado_215" data-name="Trazado 215" d="M38.748,282.188H18.671a1.569,1.569,0,0,0,0,3.137H38.748a1.569,1.569,0,0,0,0-3.137Z" transform="translate(-17.102 -282.188)" fill="#1a1a1a"></path></g></g><g id="Grupo_26" data-name="Grupo 26" transform="translate(28.443 109.12)"><g id="Grupo_25" data-name="Grupo 25" transform="translate(0 0)"><path id="Trazado_216" data-name="Trazado 216" d="M171.471,171.482a1.569,1.569,0,0,0-2.218,0L155.3,185.431l-7.256-7.256a1.568,1.568,0,1,0-2.218,2.218l8.366,8.366a1.568,1.568,0,0,0,2.218,0L171.47,173.7A1.569,1.569,0,0,0,171.471,171.482Z" transform="translate(-145.37 -171.023)" fill="#1a1a1a"></path></g></g></g></svg>