<svg xmlns="http://www.w3.org/2000/svg" xmlns:xlink="http://www.w3.org/1999/xlink" width="84.266" height="84.266" viewBox="0 0 84.266 84.266"><defs><clipPath id="clip-path"><rect id="Rect&#xE1;ngulo_1505" data-name="Rect&#xE1;ngulo 1505" width="84.266" height="84.266" transform="translate(0 0)" fill="none"></rect></clipPath></defs><g id="Grupo_6440" data-name="Grupo 6440" transform="translate(0 -0.003)"><g id="Grupo_6437" data-name="Grupo 6437" transform="translate(0 0.003)" clip-path="url(#clip-path)"><path id="Trazado_8853" data-name="Trazado 8853" d="M42.133,0a42.133,42.133,0,1,0,7.02,83.683L28.6,63.128a5.037,5.037,0,0,1-1.959-2.511c-1.313-3.662-4.247-10.343-9.129-13.964a4.194,4.194,0,0,1,2.927-7.544,17.944,17.944,0,0,1,6.309,1.857,19.4,19.4,0,0,1,4.286,2.971A97.381,97.381,0,0,1,46.438,29.132c.723-.54,1.466-1.073,2.207-1.58A48.113,48.113,0,0,1,63.7,20.419a3.872,3.872,0,0,1,.963-.123,3.765,3.765,0,0,1,2.759,1.192L84.079,38.146A42.136,42.136,0,0,0,42.133,0" transform="translate(0 -0.003)" fill="#179100"></path><path id="Trazado_8854" data-name="Trazado 8854" d="M407.212,284.785a42.143,42.143,0,0,1-35.113,41.55l-20.558-20.558a5.083,5.083,0,0,0,7.353-1.957A87.468,87.468,0,0,1,376.04,279.68c.59-.569,1.194-1.129,1.8-1.668a50.432,50.432,0,0,1,11.417-7.839,3.779,3.779,0,0,0,2.051-4.264,3.829,3.829,0,0,0-.938-1.772l16.657,16.658c.03.3.054.605.077.91q.11,1.526.111,3.08" transform="translate(-322.946 -242.652)" fill="#126b01"></path><path id="Trazado_8855" data-name="Trazado 8855" d="M244.874,256.713a50.428,50.428,0,0,0-11.417,7.839c-.6.538-1.207,1.1-1.8,1.667a87.471,87.471,0,0,0-17.146,24.141,5.069,5.069,0,0,1-9.312-.555c-1.313-3.662-4.247-10.343-9.129-13.964A4.194,4.194,0,0,1,199,268.3a17.946,17.946,0,0,1,6.309,1.857,19.4,19.4,0,0,1,4.286,2.971A97.388,97.388,0,0,1,225,258.32c.723-.54,1.466-1.073,2.207-1.58a48.111,48.111,0,0,1,15.055-7.132,3.869,3.869,0,0,1,.963-.123,3.8,3.8,0,0,1,1.646,7.228" transform="translate(-178.565 -229.191)" fill="#fff"></path></g></g></svg>