<svg xmlns="http://www.w3.org/2000/svg" xmlns:xlink="http://www.w3.org/1999/xlink" width="276" height="90.631" viewBox="0 0 276 90.631"><defs><clipPath id="clip-path"><rect id="Rect&#xE1;ngulo_12" data-name="Rect&#xE1;ngulo 12" width="276" height="90.631" fill="none"></rect></clipPath></defs><g id="Grupo_6" data-name="Grupo 6" transform="translate(0 0)"><path id="Trazado_30" data-name="Trazado 30" d="M69.887,20.044,57.184,9.131l-7.969,5.993,3.928,20.82Z" transform="translate(-37.006 -6.866)" fill="#1d1d1b" fill-rule="evenodd"></path><path id="Trazado_31" data-name="Trazado 31" d="M299.666,7.037,286.686,18.509l18.727,16.345,2.547-21.519Z" transform="translate(-215.568 -5.292)" fill="#1d1d1b" fill-rule="evenodd"></path><path id="Trazado_32" data-name="Trazado 32" d="M153.846,0l-12.3,9.37-9,3.808,13.921,34.571,7.59-1.687Z" transform="translate(-99.666)" fill="#69c1c2"></path><path id="Trazado_33" data-name="Trazado 33" d="M235.61,27.924l-8.636-3.249,1.8-1.854-4.946.819-1.88-1.218,2.256-2.865-5.362.939-.082,41.365,4.334,1.258Z" transform="translate(-164.491 -14.706)" fill="#99212c" fill-rule="evenodd"></path><path id="Trazado_34" data-name="Trazado 34" d="M62.044,69.023l-.992,8.147,7.817,7.347,9.507-9.1,12.731,7.538L78.788,53.123Z" transform="translate(-45.907 -39.945)" fill="#604f47" fill-rule="evenodd"></path><path id="Trazado_35" data-name="Trazado 35" d="M104.617,143l-8.668,7.71L112.1,157.04l5.077-6.917Z" transform="translate(-72.146 -107.527)" fill="#1d1d1b" fill-rule="evenodd"></path><path id="Trazado_36" data-name="Trazado 36" d="M254.754,141.108l-12.307,7.844,4.67,6.665,17.477-5.4Z" transform="translate(-182.303 -106.104)" fill="#1d1d1b" fill-rule="evenodd"></path><path id="Trazado_37" data-name="Trazado 37" d="M255.023,53.284,244.577,82.662l11.779-7.591,17.394-5.442Z" transform="translate(-183.905 -40.066)" fill="#604f47" fill-rule="evenodd"></path><path id="Trazado_38" data-name="Trazado 38" d="M291.27,124.614l9.661,9.179,8.225-6.246-.3-8.375Z" transform="translate(-219.015 -89.609)" fill="#604f47" fill-rule="evenodd"></path><path id="Trazado_39" data-name="Trazado 39" d="M242.008,177.481l-5.777-.606,1.674-6.033Z" transform="translate(-177.629 -128.461)" fill="#b1804b" fill-rule="evenodd"></path><path id="Trazado_40" data-name="Trazado 40" d="M167.9,176.862l-.069.052-3.618,2.638-3.163-1.533,5.077-6.31Z" transform="translate(-121.097 -129.113)" fill="#69c1c2" fill-rule="evenodd"></path><path id="Trazado_41" data-name="Trazado 41" d="M43,157.39l-16.776.921,8.64-8.251Z" transform="translate(-19.719 -112.835)" fill="#b1804b" fill-rule="evenodd"></path><path id="Trazado_42" data-name="Trazado 42" d="M52.72,195.654,42.8,178.879l-16.575,1.1,5.952,17.21Z" transform="translate(-19.72 -134.505)" fill="#b1804b" fill-rule="evenodd"></path><g id="Grupo_5" data-name="Grupo 5" transform="translate(0 0)"><g id="Grupo_4" data-name="Grupo 4" clip-path="url(#clip-path)"><path id="Trazado_43" data-name="Trazado 43" d="M307.746,151.9l-7.84,6-10.118,17.469,20.841.223,5.194-16.315s-4.561-5.9-8.077-7.377" transform="translate(-217.9 -114.214)" fill="#b1804b" fill-rule="evenodd"></path><path id="Trazado_44" data-name="Trazado 44" d="M92.7,174.08l-1.071,1.772,10.27,16.193,6.951-12.244Z" transform="translate(-68.9 -130.896)" fill="#604f47" fill-rule="evenodd"></path><path id="Trazado_45" data-name="Trazado 45" d="M192.983,188.674l-9.853,17.214L173.8,190.311l3.688-2.69,7.212-1.6Z" transform="translate(-130.685 -139.872)" fill="#1d1d1b" fill-rule="evenodd"></path><path id="Trazado_46" data-name="Trazado 46" d="M139.979,197.146l-6.951,12.244,19.444,4.866-9.33-15.576Z" transform="translate(-100.028 -148.24)" fill="#7b6962" fill-rule="evenodd"></path><path id="Trazado_47" data-name="Trazado 47" d="M278.213,177.821l-16.942,5.4,7.074,11.637Z" transform="translate(-196.458 -133.709)" fill="#604f47" fill-rule="evenodd"></path><path id="Trazado_48" data-name="Trazado 48" d="M211.412,213.877l19.443-4.866-7.074-12.129-2.706-.239Z" transform="translate(-158.967 -147.861)" fill="#7b6962" fill-rule="evenodd"></path><path id="Trazado_49" data-name="Trazado 49" d="M6.506,183.319,0,200.513l4.282-.186L5.47,214.557l6.506,1.047.483-15.074Z" transform="translate(0 -137.843)" fill="#926537" fill-rule="evenodd"></path><path id="Trazado_50" data-name="Trazado 50" d="M379,181.632l6.544,17.629-3.448-.064-1.454,13.417-2.522,1.775-4.108-.063-.205-16.378Z" transform="translate(-281.073 -136.574)" fill="#926537" fill-rule="evenodd"></path><path id="Trazado_51" data-name="Trazado 51" d="M31.251,267.185S35.119,278.039,44.1,280.64l1.926-5,3.651-.156L35.956,252.7l-.483,15.074Z" transform="translate(-23.499 -190.01)" fill="#b1804b" fill-rule="evenodd"></path><path id="Trazado_52" data-name="Trazado 52" d="M334.445,247.4,321.46,271.427l2.723.389,1.666,4.805s11.33-7.209,12.663-12.64l-3.862-.2Z" transform="translate(-241.715 -186.028)" fill="#b1804b" fill-rule="evenodd"></path><path id="Trazado_53" data-name="Trazado 53" d="M277.617,246.5,273.6,265.184l11.872,5.86,12.984-24.32Z" transform="translate(-205.729 -185.352)" fill="#ceac89" fill-rule="evenodd"></path><path id="Trazado_54" data-name="Trazado 54" d="M70.007,246.5l5.028,18.331-11.852,5.993L49.215,247.908Z" transform="translate(-37.007 -185.352)" fill="#ceac89" fill-rule="evenodd"></path><path id="Trazado_55" data-name="Trazado 55" d="M230.855,246.5l-19.443,4.866,15.427,13.816Z" transform="translate(-158.967 -185.352)" fill="#926537" fill-rule="evenodd"></path><path id="Trazado_56" data-name="Trazado 56" d="M152.473,251.367,133.028,246.5l5.029,18.331Z" transform="translate(-100.028 -185.351)" fill="#926537" fill-rule="evenodd"></path><path id="Trazado_57" data-name="Trazado 57" d="M216.876,288.677l-5.405.106-.059-22.666,9.662,8.456Z" transform="translate(-158.967 -200.101)" fill="#ececec" fill-rule="evenodd"></path><path id="Trazado_58" data-name="Trazado 58" d="M175.761,287.854l-4.509-12.735,9.963-9,.059,22.666Z" transform="translate(-128.769 -200.101)" fill="#d9d9d9" fill-rule="evenodd"></path><path id="Trazado_59" data-name="Trazado 59" d="M462.586,131.488a16.594,16.594,0,0,1-5.21,3.526,16.472,16.472,0,0,1-12.732,0,16.323,16.323,0,0,1-8.713-8.713,16.406,16.406,0,0,1,0-12.71,16.322,16.322,0,0,1,8.713-8.713,16.46,16.46,0,0,1,12.732,0,16.606,16.606,0,0,1,5.21,3.525l-3.817,3.817a11.037,11.037,0,0,0-3.548-2.4,10.778,10.778,0,0,0-4.222-.831,10.663,10.663,0,0,0-4.177.831,11.337,11.337,0,0,0-5.95,5.95,10.668,10.668,0,0,0-.831,4.177,10.823,10.823,0,0,0,.831,4.2,10.937,10.937,0,0,0,2.4,3.57,10.72,10.72,0,0,0,3.548,2.38A10.923,10.923,0,0,0,451,130.9a11.042,11.042,0,0,0,4.222-.809,10.718,10.718,0,0,0,3.548-2.38Z" transform="translate(-326.827 -77.898)" fill="#604f47"></path><path id="Trazado_60" data-name="Trazado 60" d="M585.2,137.752h-5.93l-2.424-5.389-2.426-5.39-6.378-14.1-6.377,14.1h8.174l2.426,5.39H559.236l-2.426,5.389h-5.928l14.192-31.438H571Z" transform="translate(-414.224 -79.94)" fill="#604f47"></path><path id="Trazado_61" data-name="Trazado 61" d="M712.336,126.727a10.515,10.515,0,0,1-.719,3.975,8.305,8.305,0,0,1-2.044,3.009,9.157,9.157,0,0,1-3.211,1.909,12.489,12.489,0,0,1-4.222.673,17.493,17.493,0,0,1-6.646-1.19,18.994,18.994,0,0,1-4.805-2.717l3.727-3.728a10.652,10.652,0,0,0,3.324,2.066,9.012,9.012,0,0,0,2.11.584,12.412,12.412,0,0,0,1.617.135,7.358,7.358,0,0,0,2.133-.292,6.026,6.026,0,0,0,1.685-.786,3.505,3.505,0,0,0,1.526-2.964A2.943,2.943,0,0,0,706,125.38a4.694,4.694,0,0,0-1.617-1.168,8.568,8.568,0,0,0-1.707-.718q-.9-.269-1.615-.494a1.712,1.712,0,0,0-.405-.112.71.71,0,0,1-.314-.112.674.674,0,0,1-.27-.09q-.943-.269-2.717-.942a17.659,17.659,0,0,1-3.526-1.841q-4.089-2.739-4.088-6.737a9.819,9.819,0,0,1,.921-4.469,8.574,8.574,0,0,1,2.4-2.964,9.371,9.371,0,0,1,3.3-1.64,13.6,13.6,0,0,1,3.572-.494,16.735,16.735,0,0,1,5.433.764,20.153,20.153,0,0,1,3.5,1.527,10.082,10.082,0,0,1,1.146.785q.471.383.83.7l-3.817,3.863a9.652,9.652,0,0,0-2.471-1.841,9.084,9.084,0,0,0-3.952-.9,7.359,7.359,0,0,0-1.8.225,6.91,6.91,0,0,0-1.573.584,3.633,3.633,0,0,0-1.976,3.189,2.894,2.894,0,0,0,.809,2.066,5.425,5.425,0,0,0,1.617,1.212,9.3,9.3,0,0,0,1.8.718q.943.271,1.751.495l.539.135q.225.09.853.27a13.16,13.16,0,0,1,1.482.539q.854.359,1.865.853a16.19,16.19,0,0,1,2,1.167q4.357,2.875,4.357,6.781" transform="translate(-518.639 -77.898)" fill="#604f47"></path><path id="Trazado_62" data-name="Trazado 62" d="M804.294,111.7h-9.206v26.048H789.7V111.7h-9.252v-5.39h23.848Z" transform="translate(-586.84 -79.94)" fill="#604f47"></path><path id="Trazado_63" data-name="Trazado 63" d="M891.663,103.6a15.959,15.959,0,0,1,6.357,1.281,16.34,16.34,0,0,1,8.713,8.713,16.417,16.417,0,0,1,0,12.71,16.341,16.341,0,0,1-8.713,8.713,16.422,16.422,0,0,1-12.711,0A16.339,16.339,0,0,1,876.6,126.3a16.415,16.415,0,0,1,0-12.71,16.339,16.339,0,0,1,8.713-8.713,15.952,15.952,0,0,1,6.355-1.281m0,5.39a10.654,10.654,0,0,0-4.175.831,11.334,11.334,0,0,0-5.951,5.951,10.652,10.652,0,0,0-.832,4.177,10.807,10.807,0,0,0,.832,4.2,10.95,10.95,0,0,0,2.4,3.57,10.7,10.7,0,0,0,3.549,2.38,10.914,10.914,0,0,0,4.175.808,11.1,11.1,0,0,0,4.2-.808,10.951,10.951,0,0,0,5.951-5.95,11.088,11.088,0,0,0,.808-4.2,10.928,10.928,0,0,0-.808-4.177,10.746,10.746,0,0,0-2.381-3.548,10.979,10.979,0,0,0-3.57-2.4,10.834,10.834,0,0,0-4.2-.831" transform="translate(-658.175 -77.898)" fill="#604f47"></path><path id="Trazado_64" data-name="Trazado 64" d="M1041.018,117.587a11.124,11.124,0,0,1-.471,3.256,11.5,11.5,0,0,1-1.3,2.852,11.178,11.178,0,0,1-2.022,2.358,10.947,10.947,0,0,1-2.626,1.729l6.421,9.97H1034.6l-5.705-8.848h-3.683l2.2-5.389h2.335a5.7,5.7,0,0,0,4.177-1.752,6.32,6.32,0,0,0,1.258-1.93,5.858,5.858,0,0,0-1.258-6.378,5.7,5.7,0,0,0-4.177-1.751h-6.376v26.048h-5.391V106.313h11.767a10.761,10.761,0,0,1,4.379.9,11.488,11.488,0,0,1,6,6,10.75,10.75,0,0,1,.9,4.38" transform="translate(-765.448 -79.94)" fill="#604f47"></path><path id="Trazado_65" data-name="Trazado 65" d="M450.18,284.267V280.28q0-1.615.01-2.583-.627.959-1.711,2.588l-2.649,3.982h-.4q-1.574-2.371-2.649-4t-1.7-2.573q.009.968.01,2.583v3.987h-.545v-7.479h.566q1.664,2.5,2.8,4.2t1.736,2.614q.605-.918,1.736-2.614t2.8-4.2h.555v7.479Z" transform="translate(-331.256 -208.125)" fill="#604f47"></path><path id="Trazado_66" data-name="Trazado 66" d="M500.063,282.732a2.262,2.262,0,0,1-.535.99,2.012,2.012,0,0,1-.924.529,5.008,5.008,0,0,1-1.337.156,4.9,4.9,0,0,1-1.322-.156,1.984,1.984,0,0,1-.914-.529,2.293,2.293,0,0,1-.53-.99,5.763,5.763,0,0,1-.171-1.524v-4.421h.545v4.4a6.177,6.177,0,0,0,.111,1.267,1.9,1.9,0,0,0,.384.843,1.521,1.521,0,0,0,.732.464,4.053,4.053,0,0,0,1.165.141,4.253,4.253,0,0,0,1.2-.141,1.512,1.512,0,0,0,.741-.464,1.851,1.851,0,0,0,.379-.843,6.467,6.467,0,0,0,.106-1.267v-4.4h.545v4.421a5.76,5.76,0,0,1-.172,1.524" transform="translate(-371.701 -208.125)" fill="#604f47"></path><path id="Trazado_67" data-name="Trazado 67" d="M530.863,284.267v-7.479h5.017v.514h-4.471v2.806h3.633v.515h-3.633v3.128h4.613v.515Z" transform="translate(-399.171 -208.125)" fill="#604f47"></path><path id="Trazado_68" data-name="Trazado 68" d="M567.17,282.976a1.752,1.752,0,0,1-.494.58,2.59,2.59,0,0,1-.721.378,5.288,5.288,0,0,1-.853.217,7.454,7.454,0,0,1-.909.1q-.464.02-.878.02h-2.1v-7.478h2.14a8.524,8.524,0,0,1,1.609.131,3.69,3.69,0,0,1,1.1.373,1.608,1.608,0,0,1,.626.586,1.515,1.515,0,0,1,.2.767,1.582,1.582,0,0,1-.334,1.009,2.065,2.065,0,0,1-1.06.646,2.859,2.859,0,0,1,1.358.636,1.559,1.559,0,0,1,.5,1.211,1.747,1.747,0,0,1-.182.828m-.968-4.85a1.2,1.2,0,0,0-.485-.419,3.353,3.353,0,0,0-.929-.293,8.017,8.017,0,0,0-1.463-.112H561.76v2.766h1.575a7.788,7.788,0,0,0,1.6-.131,2.744,2.744,0,0,0,.909-.338.962.962,0,0,0,.4-.464,1.517,1.517,0,0,0,.091-.51.967.967,0,0,0-.141-.5m.424,3.392a1.451,1.451,0,0,0-.586-.494,3.766,3.766,0,0,0-1.034-.323,8.6,8.6,0,0,0-1.53-.116H561.76v3.168h1.554q.646,0,1.272-.055a4.655,4.655,0,0,0,1.12-.227,1.96,1.96,0,0,0,.8-.49,1.249,1.249,0,0,0,.121-1.463" transform="translate(-421.994 -208.126)" fill="#604f47"></path><path id="Trazado_69" data-name="Trazado 69" d="M599.868,284.267v-7.479h.544v6.964h4.764v.515Z" transform="translate(-451.059 -208.125)" fill="#604f47"></path><path id="Trazado_70" data-name="Trazado 70" d="M630.421,284.267v-7.479h5.018v.514h-4.472v2.806H634.6v.515h-3.632v3.128h4.613v.515Z" transform="translate(-474.033 -208.125)" fill="#604f47"></path><path id="Trazado_71" data-name="Trazado 71" d="M666.131,282.615a2.222,2.222,0,0,1-.691.7,3.6,3.6,0,0,1-1.091.49,5.21,5.21,0,0,1-1.392.176,5.469,5.469,0,0,1-2.074-.333,3.5,3.5,0,0,1-1.326-.938l.423-.354a2.743,2.743,0,0,0,1.13.818,4.885,4.885,0,0,0,1.858.3,4.341,4.341,0,0,0,1.246-.162,3.444,3.444,0,0,0,.934-.424,1.6,1.6,0,0,0,.505-.51,1.188,1.188,0,0,0,.182-.631,1.036,1.036,0,0,0-.218-.7,1.854,1.854,0,0,0-.459-.394,2.927,2.927,0,0,0-.3-.136c-.111-.044-.252-.09-.423-.141s-.384-.106-.637-.166-.562-.131-.933-.212q-.584-.131-.959-.222t-.616-.161a3.748,3.748,0,0,1-.4-.136,3.12,3.12,0,0,1-.287-.137,1.657,1.657,0,0,1-.546-.489,1.407,1.407,0,0,1-.241-.853,1.487,1.487,0,0,1,.207-.742,1.557,1.557,0,0,1,.691-.611,3.345,3.345,0,0,1,1.009-.333,7.412,7.412,0,0,1,1.281-.1,6.758,6.758,0,0,1,1.107.081,3.529,3.529,0,0,1,.842.242,2.3,2.3,0,0,1,.625.4,2.381,2.381,0,0,1,.444.555l-.475.252a1.9,1.9,0,0,0-.348-.434,1.781,1.781,0,0,0-.509-.323,3.141,3.141,0,0,0-.717-.2,5.791,5.791,0,0,0-.969-.07,6.952,6.952,0,0,0-1.155.091,2.609,2.609,0,0,0-.873.282,1.044,1.044,0,0,0-.616.939.906.906,0,0,0,.157.53,1.084,1.084,0,0,0,.417.358,2.226,2.226,0,0,0,.314.126q.171.056.428.127t.627.151q.367.081.9.2.463.1.817.187c.234.057.445.112.63.166a3.81,3.81,0,0,1,.489.177,3.334,3.334,0,0,1,.4.217,2.131,2.131,0,0,1,.571.561,1.493,1.493,0,0,1,.257.893,1.66,1.66,0,0,1-.248.888" transform="translate(-495.941 -207.695)" fill="#604f47"></path><path id="Trazado_72" data-name="Trazado 72" d="M716.422,281.078v3.189h-.544v-3.189l-3.231-4.289h.657l1.5,2.008q.335.454.671.893c.225.293.45.59.671.894.228-.3.455-.6.677-.9s.445-.6.666-.9l1.5-2h.655Z" transform="translate(-535.86 -208.126)" fill="#604f47"></path><path id="Trazado_73" data-name="Trazado 73" d="M770.331,284.267l-1.119-2.493h-3.563l-1.11,2.493h-.585l3.31-7.479h.345l3.32,7.479Zm-2.14-4.854c-.12-.289-.245-.578-.373-.868s-.255-.588-.384-.9q-.19.454-.373.878c-.121.282-.241.565-.362.848l-.818,1.887h3.108Z" transform="translate(-574.439 -208.125)" fill="#604f47"></path><path id="Trazado_74" data-name="Trazado 74" d="M807.545,282.767a3.954,3.954,0,0,1-.723.6,4.007,4.007,0,0,1-.912.439,3.517,3.517,0,0,1-1.132.171,4.471,4.471,0,0,1-1.65-.288,3.69,3.69,0,0,1-1.185-.711,3.878,3.878,0,0,1-.895-1.272,4.282,4.282,0,0,1-.009-3.215,3.677,3.677,0,0,1,.851-1.225,3.763,3.763,0,0,1,1.3-.783,4.809,4.809,0,0,1,1.635-.268,3.708,3.708,0,0,1,.989.127,3.254,3.254,0,0,1,.826.354,3.328,3.328,0,0,1,.677.54,4.094,4.094,0,0,1,.536.686l-.455.282a4.277,4.277,0,0,0-.453-.586,2.91,2.91,0,0,0-.569-.474,2.717,2.717,0,0,0-.7-.313,3.048,3.048,0,0,0-.848-.111,4.534,4.534,0,0,0-1.282.187,3.24,3.24,0,0,0-1.14.6,3.045,3.045,0,0,0-.818,1.05,3.5,3.5,0,0,0-.314,1.549,3.553,3.553,0,0,0,.293,1.494,3,3,0,0,0,.784,1.05,3.306,3.306,0,0,0,1.119.62,4.158,4.158,0,0,0,1.307.207,2.878,2.878,0,0,0,.991-.161,3.53,3.53,0,0,0,.8-.409,3.612,3.612,0,0,0,.627-.54,6.959,6.959,0,0,0,.459-.555l.445.3a8.266,8.266,0,0,1-.555.657" transform="translate(-602.094 -207.695)" fill="#604f47"></path><path id="Trazado_75" data-name="Trazado 75" d="M844.407,282.767a3.943,3.943,0,0,1-.721.6,4.028,4.028,0,0,1-.914.439,3.5,3.5,0,0,1-1.13.171,4.488,4.488,0,0,1-1.651-.288,3.707,3.707,0,0,1-1.185-.711,3.846,3.846,0,0,1-.893-1.272,4.292,4.292,0,0,1-.011-3.215,3.659,3.659,0,0,1,.853-1.225,3.738,3.738,0,0,1,1.3-.783,4.808,4.808,0,0,1,1.635-.268,3.688,3.688,0,0,1,.989.127,3.265,3.265,0,0,1,.828.354,3.376,3.376,0,0,1,.677.54,4,4,0,0,1,.534.686l-.453.282a4.3,4.3,0,0,0-.453-.586,2.93,2.93,0,0,0-.571-.474,2.717,2.717,0,0,0-.7-.313,3.03,3.03,0,0,0-.848-.111,4.551,4.551,0,0,0-1.282.187,3.271,3.271,0,0,0-1.141.6,3.068,3.068,0,0,0-.818,1.05,3.5,3.5,0,0,0-.313,1.549,3.549,3.549,0,0,0,.293,1.494,2.974,2.974,0,0,0,.782,1.05,3.315,3.315,0,0,0,1.121.62,4.142,4.142,0,0,0,1.307.207,2.875,2.875,0,0,0,.989-.161,3.51,3.51,0,0,0,.8-.409,3.668,3.668,0,0,0,.625-.54,6.309,6.309,0,0,0,.459-.555l.445.3a7.536,7.536,0,0,1-.555.657" transform="translate(-629.813 -207.695)" fill="#604f47"></path><path id="Trazado_76" data-name="Trazado 76" d="M876.69,284.267v-7.479h5.018v.514h-4.471v2.806h3.632v.515h-3.632v3.128h4.613v.515Z" transform="translate(-659.209 -208.125)" fill="#604f47"></path><path id="Trazado_77" data-name="Trazado 77" d="M912.4,282.615a2.22,2.22,0,0,1-.691.7,3.6,3.6,0,0,1-1.091.49,5.21,5.21,0,0,1-1.392.176,5.47,5.47,0,0,1-2.074-.333,3.5,3.5,0,0,1-1.326-.938l.423-.354a2.739,2.739,0,0,0,1.13.818,4.887,4.887,0,0,0,1.858.3,4.341,4.341,0,0,0,1.246-.162,3.437,3.437,0,0,0,.933-.424,1.608,1.608,0,0,0,.505-.51,1.189,1.189,0,0,0,.182-.631,1.037,1.037,0,0,0-.218-.7,1.854,1.854,0,0,0-.459-.394,2.931,2.931,0,0,0-.3-.136c-.111-.044-.252-.09-.423-.141s-.384-.106-.637-.166-.562-.131-.934-.212q-.584-.131-.958-.222t-.616-.161a3.744,3.744,0,0,1-.4-.136,3.112,3.112,0,0,1-.287-.137,1.654,1.654,0,0,1-.546-.489,1.407,1.407,0,0,1-.241-.853,1.488,1.488,0,0,1,.207-.742,1.557,1.557,0,0,1,.691-.611,3.345,3.345,0,0,1,1.009-.333,7.413,7.413,0,0,1,1.282-.1,6.757,6.757,0,0,1,1.107.081,3.527,3.527,0,0,1,.842.242,2.3,2.3,0,0,1,.625.4,2.385,2.385,0,0,1,.445.555l-.475.252a1.908,1.908,0,0,0-.348-.434,1.778,1.778,0,0,0-.509-.323,3.142,3.142,0,0,0-.718-.2,5.789,5.789,0,0,0-.969-.07,6.955,6.955,0,0,0-1.155.091,2.607,2.607,0,0,0-.873.282,1.044,1.044,0,0,0-.616.939.906.906,0,0,0,.157.53,1.082,1.082,0,0,0,.418.358,2.207,2.207,0,0,0,.314.126q.171.056.428.127t.627.151c.245.054.546.121.9.2q.463.1.818.187c.234.057.444.112.63.166a3.806,3.806,0,0,1,.489.177,3.325,3.325,0,0,1,.4.217,2.133,2.133,0,0,1,.571.561,1.493,1.493,0,0,1,.257.893,1.66,1.66,0,0,1-.248.888" transform="translate(-681.117 -207.695)" fill="#604f47"></path><path id="Trazado_78" data-name="Trazado 78" d="M952.369,281.808a3.573,3.573,0,0,1-.914,1.211,3.78,3.78,0,0,1-1.312.722,5.061,5.061,0,0,1-3.058,0,3.763,3.763,0,0,1-1.312-.722,3.548,3.548,0,0,1-.914-1.211,3.96,3.96,0,0,1-.343-1.706v-.01a3.96,3.96,0,0,1,.343-1.706,3.547,3.547,0,0,1,.914-1.211,3.762,3.762,0,0,1,1.312-.722,5.041,5.041,0,0,1,3.058,0,3.778,3.778,0,0,1,1.312.722,3.566,3.566,0,0,1,.914,1.216,4.428,4.428,0,0,1,0,3.417m-.5-3.214a2.962,2.962,0,0,0-.782-1.055,3.311,3.311,0,0,0-1.135-.621,4.389,4.389,0,0,0-1.343-.206H948.6a4.349,4.349,0,0,0-1.339.206,3.317,3.317,0,0,0-1.13.621,2.962,2.962,0,0,0-.782,1.055,3.968,3.968,0,0,0,0,2.992,2.985,2.985,0,0,0,.782,1.051,3.29,3.29,0,0,0,1.135.62,4.453,4.453,0,0,0,2.685,0,3.292,3.292,0,0,0,1.135-.62,2.985,2.985,0,0,0,.782-1.051,3.969,3.969,0,0,0,0-2.992" transform="translate(-710.21 -207.695)" fill="#604f47"></path><path id="Trazado_79" data-name="Trazado 79" d="M996.313,284.267l-3.2-3.109h-2.483v3.109h-.545v-7.479h2.564a5.407,5.407,0,0,1,2.81.56,1.838,1.838,0,0,1,.687,2.4,2.187,2.187,0,0,1-.541.661,2.883,2.883,0,0,1-.807.469,3.956,3.956,0,0,1-1,.242l3.27,3.149Zm-.63-5.929a1.174,1.174,0,0,0-.464-.52,2.935,2.935,0,0,0-.98-.373,7.867,7.867,0,0,0-1.669-.142h-1.939v3.341h2.613a3.708,3.708,0,0,0,1.116-.152,2.6,2.6,0,0,0,.8-.393,1.657,1.657,0,0,0,.478-.55,1.33,1.33,0,0,0,.162-.631,1.549,1.549,0,0,0-.116-.58" transform="translate(-744.476 -208.125)" fill="#604f47"></path><rect id="Rect&#xE1;ngulo_11" data-name="Rect&#xE1;ngulo 11" width="0.546" height="7.479" transform="translate(255.329 68.663)" fill="#604f47"></rect><path id="Trazado_80" data-name="Trazado 80" d="M1051.641,281.808a3.551,3.551,0,0,1-.914,1.211,3.78,3.78,0,0,1-1.312.722,5.062,5.062,0,0,1-3.058,0,3.782,3.782,0,0,1-1.312-.722,3.556,3.556,0,0,1-.914-1.211,3.965,3.965,0,0,1-.343-1.706v-.01a3.965,3.965,0,0,1,.343-1.706,3.556,3.556,0,0,1,.914-1.211,3.78,3.78,0,0,1,1.312-.722,5.041,5.041,0,0,1,3.058,0,3.779,3.779,0,0,1,1.312.722,3.544,3.544,0,0,1,.914,1.216,4.427,4.427,0,0,1,0,3.417m-.494-3.214a2.962,2.962,0,0,0-.782-1.055,3.313,3.313,0,0,0-1.135-.621,4.4,4.4,0,0,0-1.343-.206h-.011a4.335,4.335,0,0,0-1.337.206,3.285,3.285,0,0,0-1.13.621,2.987,2.987,0,0,0-.784,1.055,3.968,3.968,0,0,0,0,2.992,3.01,3.01,0,0,0,.784,1.051,3.261,3.261,0,0,0,1.135.62,4.453,4.453,0,0,0,2.685,0,3.3,3.3,0,0,0,1.135-.62,2.985,2.985,0,0,0,.782-1.051,3.968,3.968,0,0,0,0-2.992" transform="translate(-784.856 -207.695)" fill="#604f47"></path><path id="Trazado_81" data-name="Trazado 81" d="M1091.661,282.615a2.224,2.224,0,0,1-.691.7,3.6,3.6,0,0,1-1.091.49,5.21,5.21,0,0,1-1.392.176,5.47,5.47,0,0,1-2.074-.333,3.5,3.5,0,0,1-1.326-.938l.423-.354a2.742,2.742,0,0,0,1.13.818,4.886,4.886,0,0,0,1.858.3,4.337,4.337,0,0,0,1.246-.162,3.437,3.437,0,0,0,.934-.424,1.6,1.6,0,0,0,.505-.51,1.188,1.188,0,0,0,.182-.631,1.036,1.036,0,0,0-.218-.7,1.857,1.857,0,0,0-.459-.394,2.955,2.955,0,0,0-.3-.136c-.111-.044-.252-.09-.423-.141s-.384-.106-.637-.166-.562-.131-.934-.212q-.584-.131-.958-.222t-.616-.161a3.777,3.777,0,0,1-.4-.136,3.152,3.152,0,0,1-.287-.137,1.658,1.658,0,0,1-.546-.489,1.407,1.407,0,0,1-.241-.853,1.487,1.487,0,0,1,.207-.742,1.555,1.555,0,0,1,.691-.611,3.345,3.345,0,0,1,1.009-.333,7.414,7.414,0,0,1,1.282-.1,6.763,6.763,0,0,1,1.107.081,3.53,3.53,0,0,1,.842.242,2.309,2.309,0,0,1,.625.4,2.374,2.374,0,0,1,.444.555l-.475.252a1.9,1.9,0,0,0-.348-.434,1.781,1.781,0,0,0-.509-.323,3.141,3.141,0,0,0-.717-.2,5.792,5.792,0,0,0-.969-.07,6.956,6.956,0,0,0-1.155.091,2.607,2.607,0,0,0-.873.282,1.044,1.044,0,0,0-.616.939.906.906,0,0,0,.157.53,1.085,1.085,0,0,0,.417.358,2.226,2.226,0,0,0,.314.126q.171.056.428.127t.627.151q.367.081.9.2.463.1.817.187c.234.057.445.112.63.166a3.8,3.8,0,0,1,.489.177,3.322,3.322,0,0,1,.4.217,2.13,2.13,0,0,1,.571.561,1.492,1.492,0,0,1,.257.893,1.661,1.661,0,0,1-.248.888" transform="translate(-815.909 -207.695)" fill="#604f47"></path></g></g></g></svg>