<svg xmlns="http://www.w3.org/2000/svg" width="60.33" height="76.389" viewBox="0 0 60.33 76.389"><g id="XMLID_1364_" transform="translate(-53.808 0.001)"><g id="XMLID_141_" transform="translate(53.808 -0.001)"><path id="XMLID_162_" d="M113.938,66.983l-9.663-16.738a8.644,8.644,0,0,0,3.006-5.444,5.623,5.623,0,0,1,2.142-3.71,8.665,8.665,0,0,0,2.708-10.1,5.623,5.623,0,0,1,0-4.284,8.665,8.665,0,0,0-2.708-10.1,5.622,5.622,0,0,1-2.142-3.71,8.665,8.665,0,0,0-7.4-7.4,5.623,5.623,0,0,1-3.71-2.142A8.665,8.665,0,0,0,86.068.639a5.623,5.623,0,0,1-4.284,0,8.665,8.665,0,0,0-10.1,2.708,5.624,5.624,0,0,1-3.71,2.142,8.665,8.665,0,0,0-7.4,7.4,5.624,5.624,0,0,1-2.142,3.71,8.665,8.665,0,0,0-2.708,10.1,5.623,5.623,0,0,1,0,4.284,8.665,8.665,0,0,0,2.708,10.1,5.624,5.624,0,0,1,2.142,3.71,8.644,8.644,0,0,0,3.07,5.5L54.008,66.983a1.492,1.492,0,0,0,1.679,2.187l8.4-2.25,2.24,8.361a1.492,1.492,0,0,0,2.734.36l10.395-18a8.571,8.571,0,0,0,2.332-.589,5.623,5.623,0,0,1,4.284,0,8.575,8.575,0,0,0,2.433.6L98.889,75.641a1.492,1.492,0,0,0,2.734-.36l2.24-8.361,8.4,2.25a1.492,1.492,0,0,0,1.678-2.187ZM68.274,71.029,66.58,64.707a1.492,1.492,0,0,0-1.827-1.055l-6.358,1.7,7.84-13.58a8.582,8.582,0,0,0,1.734.423,5.624,5.624,0,0,1,3.71,2.142,8.625,8.625,0,0,0,4.487,3.019Zm12.38-16.743a5.672,5.672,0,0,1-6.615-1.772,8.591,8.591,0,0,0-5.668-3.273A5.672,5.672,0,0,1,63.528,44.4a8.591,8.591,0,0,0-3.273-5.668,5.672,5.672,0,0,1-1.772-6.615,8.589,8.589,0,0,0,0-6.545,5.672,5.672,0,0,1,1.772-6.615,8.591,8.591,0,0,0,3.273-5.668,5.672,5.672,0,0,1,4.842-4.842,8.59,8.59,0,0,0,5.668-3.273A5.667,5.667,0,0,1,80.653,3.4a8.591,8.591,0,0,0,6.545,0,5.672,5.672,0,0,1,6.615,1.772,8.59,8.59,0,0,0,5.668,3.273,5.672,5.672,0,0,1,4.842,4.842,8.591,8.591,0,0,0,3.273,5.668,5.672,5.672,0,0,1,1.772,6.615,8.591,8.591,0,0,0,0,6.545,5.672,5.672,0,0,1-1.772,6.615,8.591,8.591,0,0,0-3.273,5.668,5.672,5.672,0,0,1-4.842,4.842,8.59,8.59,0,0,0-5.668,3.273A5.671,5.671,0,0,1,87.2,54.287a8.591,8.591,0,0,0-6.545,0Zm22.541,9.365a1.492,1.492,0,0,0-1.827,1.055l-1.694,6.322L91.767,57.336a8.625,8.625,0,0,0,4.407-3,5.622,5.622,0,0,1,3.71-2.142,8.574,8.574,0,0,0,1.812-.452l7.857,13.609Z" transform="translate(-53.808 0.001)" fill="#1a1a1a"></path><path id="XMLID_1190_" d="M181.24,134.342l-4.643,4.642a1.492,1.492,0,0,0,0,2.11L185.3,149.8a1.492,1.492,0,0,0,2.11,0l12.124-12.124a1.492,1.492,0,0,0,0-2.11l-4.643-4.643a1.492,1.492,0,0,0-2.11,0l-6.426,6.426-3.009-3.01a1.493,1.493,0,0,0-2.111,0Zm4.065,6.175a1.492,1.492,0,0,0,2.11,0l6.426-6.426,2.532,2.532-10.014,10.014-6.6-6.6,2.532-2.532Z" transform="translate(-157.903 -111.017)" fill="#1a1a1a"></path><path id="XMLID_1191_" d="M164.759,93.218A19.4,19.4,0,0,0,152.508,75.18a1.492,1.492,0,0,0-1.1,2.774,16.414,16.414,0,1,1-12.095,0,1.492,1.492,0,0,0-1.1-2.774,19.4,19.4,0,1,0,26.546,18.039Z" transform="translate(-115.195 -63.871)" fill="#1a1a1a"></path><path id="XMLID_1218_" d="M247.453,69.65a1.493,1.493,0,1,0-1.055-.437A1.5,1.5,0,0,0,247.453,69.65Z" transform="translate(-217.288 -56.718)" fill="#1a1a1a"></path></g></g></svg>